<mxfile host="app.diagrams.net" agent="Mozilla/5.0 (Macintosh; Intel Mac OS X 10_15_7) AppleWebKit/537.36 (KHTML, like Gecko) Chrome/129.0.0.0 Safari/537.36" version="24.7.16">
  <diagram name="Page-1" id="EzCo8HdtZsP0VosS1RqT">
    <mxGraphModel dx="2116" dy="650" grid="1" gridSize="10" guides="1" tooltips="1" connect="1" arrows="1" fold="1" page="1" pageScale="1" pageWidth="850" pageHeight="1100" math="0" shadow="0">
      <root>
        <mxCell id="0" />
        <mxCell id="1" parent="0" />
        <mxCell id="DwHTUwdWwvHwh_4NnhPt-7" style="edgeStyle=orthogonalEdgeStyle;rounded=0;orthogonalLoop=1;jettySize=auto;html=1;entryX=0.5;entryY=0;entryDx=0;entryDy=0;" edge="1" parent="1" source="DwHTUwdWwvHwh_4NnhPt-3" target="DwHTUwdWwvHwh_4NnhPt-4">
          <mxGeometry relative="1" as="geometry" />
        </mxCell>
        <mxCell id="DwHTUwdWwvHwh_4NnhPt-3" value="User" style="shape=umlActor;verticalLabelPosition=bottom;verticalAlign=top;html=1;outlineConnect=0;" vertex="1" parent="1">
          <mxGeometry x="50" y="57" width="30" height="60" as="geometry" />
        </mxCell>
        <mxCell id="DwHTUwdWwvHwh_4NnhPt-4" value="Browser" style="rounded=0;whiteSpace=wrap;html=1;" vertex="1" parent="1">
          <mxGeometry x="40" y="171" width="50" height="50" as="geometry" />
        </mxCell>
        <mxCell id="DwHTUwdWwvHwh_4NnhPt-5" value="Public Internet" style="ellipse;shape=cloud;whiteSpace=wrap;html=1;" vertex="1" parent="1">
          <mxGeometry x="130" y="156" width="120" height="80" as="geometry" />
        </mxCell>
        <mxCell id="DwHTUwdWwvHwh_4NnhPt-6" value="" style="group" vertex="1" connectable="0" parent="1">
          <mxGeometry x="360" y="30" width="837" height="410" as="geometry" />
        </mxCell>
        <mxCell id="DwHTUwdWwvHwh_4NnhPt-1" value="" style="rounded=0;whiteSpace=wrap;html=1;" vertex="1" parent="DwHTUwdWwvHwh_4NnhPt-6">
          <mxGeometry width="570" height="410" as="geometry" />
        </mxCell>
        <mxCell id="DwHTUwdWwvHwh_4NnhPt-2" value="AWS Cloud" style="text;html=1;align=center;verticalAlign=middle;whiteSpace=wrap;rounded=0;" vertex="1" parent="DwHTUwdWwvHwh_4NnhPt-6">
          <mxGeometry y="-0.0011111111111112848" width="99.75" height="34.166666666666664" as="geometry" />
        </mxCell>
        <mxCell id="DwHTUwdWwvHwh_4NnhPt-10" value="Route 53" style="rounded=0;whiteSpace=wrap;html=1;" vertex="1" parent="DwHTUwdWwvHwh_4NnhPt-6">
          <mxGeometry x="15" y="88" width="55" height="36.67" as="geometry" />
        </mxCell>
        <mxCell id="DwHTUwdWwvHwh_4NnhPt-19" style="edgeStyle=orthogonalEdgeStyle;rounded=0;orthogonalLoop=1;jettySize=auto;html=1;entryX=0;entryY=0.5;entryDx=0;entryDy=0;" edge="1" parent="DwHTUwdWwvHwh_4NnhPt-6" source="DwHTUwdWwvHwh_4NnhPt-11" target="DwHTUwdWwvHwh_4NnhPt-15">
          <mxGeometry relative="1" as="geometry" />
        </mxCell>
        <mxCell id="DwHTUwdWwvHwh_4NnhPt-11" value="Cloud Front" style="rounded=0;whiteSpace=wrap;html=1;" vertex="1" parent="DwHTUwdWwvHwh_4NnhPt-6">
          <mxGeometry x="14.25" y="142.20999999999998" width="55" height="37.58" as="geometry" />
        </mxCell>
        <mxCell id="DwHTUwdWwvHwh_4NnhPt-12" value="&lt;div style=&quot;&quot;&gt;&lt;br&gt;&lt;/div&gt;" style="rounded=0;whiteSpace=wrap;html=1;align=left;" vertex="1" parent="DwHTUwdWwvHwh_4NnhPt-6">
          <mxGeometry x="140.75" y="70" width="319.25" height="320" as="geometry" />
        </mxCell>
        <mxCell id="DwHTUwdWwvHwh_4NnhPt-13" value="AWS Region" style="text;html=1;align=left;verticalAlign=middle;whiteSpace=wrap;rounded=0;" vertex="1" parent="DwHTUwdWwvHwh_4NnhPt-6">
          <mxGeometry x="140.75" y="70" width="79.25" height="20" as="geometry" />
        </mxCell>
        <mxCell id="DwHTUwdWwvHwh_4NnhPt-14" value="S3" style="rounded=0;whiteSpace=wrap;html=1;" vertex="1" parent="DwHTUwdWwvHwh_4NnhPt-6">
          <mxGeometry x="254.75" y="136" width="55.25" height="50" as="geometry" />
        </mxCell>
        <mxCell id="DwHTUwdWwvHwh_4NnhPt-15" value="API Gateway" style="rounded=0;whiteSpace=wrap;html=1;" vertex="1" parent="DwHTUwdWwvHwh_4NnhPt-6">
          <mxGeometry x="254.75" y="200.94" width="55.25" height="43.06" as="geometry" />
        </mxCell>
        <mxCell id="DwHTUwdWwvHwh_4NnhPt-18" style="edgeStyle=orthogonalEdgeStyle;rounded=0;orthogonalLoop=1;jettySize=auto;html=1;entryX=0;entryY=0.5;entryDx=0;entryDy=0;" edge="1" parent="DwHTUwdWwvHwh_4NnhPt-6" source="DwHTUwdWwvHwh_4NnhPt-11" target="DwHTUwdWwvHwh_4NnhPt-14">
          <mxGeometry relative="1" as="geometry" />
        </mxCell>
        <mxCell id="DwHTUwdWwvHwh_4NnhPt-66" value="Download React App" style="edgeLabel;html=1;align=center;verticalAlign=middle;resizable=0;points=[];" vertex="1" connectable="0" parent="DwHTUwdWwvHwh_4NnhPt-18">
          <mxGeometry x="-0.5121" y="3" relative="1" as="geometry">
            <mxPoint x="41" y="1" as="offset" />
          </mxGeometry>
        </mxCell>
        <mxCell id="DwHTUwdWwvHwh_4NnhPt-20" style="edgeStyle=orthogonalEdgeStyle;rounded=0;orthogonalLoop=1;jettySize=auto;html=1;entryX=0;entryY=0.5;entryDx=0;entryDy=0;exitX=0.5;exitY=1;exitDx=0;exitDy=0;" edge="1" parent="DwHTUwdWwvHwh_4NnhPt-6" source="DwHTUwdWwvHwh_4NnhPt-11" target="DwHTUwdWwvHwh_4NnhPt-15">
          <mxGeometry relative="1" as="geometry" />
        </mxCell>
        <mxCell id="DwHTUwdWwvHwh_4NnhPt-67" value="Talk to Backend Application" style="edgeLabel;html=1;align=center;verticalAlign=middle;resizable=0;points=[];" vertex="1" connectable="0" parent="DwHTUwdWwvHwh_4NnhPt-20">
          <mxGeometry x="-0.0893" y="1" relative="1" as="geometry">
            <mxPoint x="21" as="offset" />
          </mxGeometry>
        </mxCell>
        <mxCell id="DwHTUwdWwvHwh_4NnhPt-56" style="edgeStyle=orthogonalEdgeStyle;rounded=0;orthogonalLoop=1;jettySize=auto;html=1;entryX=1;entryY=0.5;entryDx=0;entryDy=0;" edge="1" parent="DwHTUwdWwvHwh_4NnhPt-6" source="DwHTUwdWwvHwh_4NnhPt-41" target="DwHTUwdWwvHwh_4NnhPt-14">
          <mxGeometry relative="1" as="geometry" />
        </mxCell>
        <mxCell id="DwHTUwdWwvHwh_4NnhPt-68" value="Deploy new version" style="edgeLabel;html=1;align=center;verticalAlign=middle;resizable=0;points=[];" vertex="1" connectable="0" parent="DwHTUwdWwvHwh_4NnhPt-56">
          <mxGeometry x="-0.1204" relative="1" as="geometry">
            <mxPoint x="1" as="offset" />
          </mxGeometry>
        </mxCell>
        <mxCell id="DwHTUwdWwvHwh_4NnhPt-41" value="S3 Artifact" style="rounded=0;whiteSpace=wrap;html=1;" vertex="1" parent="DwHTUwdWwvHwh_4NnhPt-6">
          <mxGeometry x="479" y="135.12" width="61" height="50.88" as="geometry" />
        </mxCell>
        <mxCell id="DwHTUwdWwvHwh_4NnhPt-57" value="S3 CV Storage" style="rounded=0;whiteSpace=wrap;html=1;" vertex="1" parent="DwHTUwdWwvHwh_4NnhPt-6">
          <mxGeometry x="370" y="329.75" width="65.25" height="50" as="geometry" />
        </mxCell>
        <mxCell id="DwHTUwdWwvHwh_4NnhPt-62" style="edgeStyle=orthogonalEdgeStyle;rounded=0;orthogonalLoop=1;jettySize=auto;html=1;entryX=0;entryY=0.5;entryDx=0;entryDy=0;" edge="1" parent="DwHTUwdWwvHwh_4NnhPt-6" source="DwHTUwdWwvHwh_4NnhPt-58" target="DwHTUwdWwvHwh_4NnhPt-57">
          <mxGeometry relative="1" as="geometry" />
        </mxCell>
        <mxCell id="DwHTUwdWwvHwh_4NnhPt-58" value="Lambda Function" style="rounded=0;whiteSpace=wrap;html=1;" vertex="1" parent="DwHTUwdWwvHwh_4NnhPt-6">
          <mxGeometry x="269.13" y="328.5" width="62.5" height="52.5" as="geometry" />
        </mxCell>
        <mxCell id="DwHTUwdWwvHwh_4NnhPt-61" style="edgeStyle=orthogonalEdgeStyle;rounded=0;orthogonalLoop=1;jettySize=auto;html=1;entryX=0;entryY=0.5;entryDx=0;entryDy=0;" edge="1" parent="DwHTUwdWwvHwh_4NnhPt-6" source="DwHTUwdWwvHwh_4NnhPt-59" target="DwHTUwdWwvHwh_4NnhPt-58">
          <mxGeometry relative="1" as="geometry" />
        </mxCell>
        <mxCell id="DwHTUwdWwvHwh_4NnhPt-59" value="API Gateway" style="rounded=0;whiteSpace=wrap;html=1;" vertex="1" parent="DwHTUwdWwvHwh_4NnhPt-6">
          <mxGeometry x="170" y="328.75" width="62.5" height="52.5" as="geometry" />
        </mxCell>
        <mxCell id="DwHTUwdWwvHwh_4NnhPt-60" style="edgeStyle=orthogonalEdgeStyle;rounded=0;orthogonalLoop=1;jettySize=auto;html=1;entryX=0;entryY=0.5;entryDx=0;entryDy=0;exitX=0.25;exitY=1;exitDx=0;exitDy=0;" edge="1" parent="DwHTUwdWwvHwh_4NnhPt-6" source="DwHTUwdWwvHwh_4NnhPt-11" target="DwHTUwdWwvHwh_4NnhPt-59">
          <mxGeometry relative="1" as="geometry" />
        </mxCell>
        <mxCell id="DwHTUwdWwvHwh_4NnhPt-70" value="Request For Pre-Signed URL" style="edgeLabel;html=1;align=center;verticalAlign=middle;resizable=0;points=[];" vertex="1" connectable="0" parent="DwHTUwdWwvHwh_4NnhPt-60">
          <mxGeometry x="-0.075" relative="1" as="geometry">
            <mxPoint as="offset" />
          </mxGeometry>
        </mxCell>
        <mxCell id="DwHTUwdWwvHwh_4NnhPt-8" style="edgeStyle=orthogonalEdgeStyle;rounded=0;orthogonalLoop=1;jettySize=auto;html=1;entryX=0.1;entryY=0.5;entryDx=0;entryDy=0;entryPerimeter=0;" edge="1" parent="1" source="DwHTUwdWwvHwh_4NnhPt-4" target="DwHTUwdWwvHwh_4NnhPt-5">
          <mxGeometry relative="1" as="geometry" />
        </mxCell>
        <mxCell id="DwHTUwdWwvHwh_4NnhPt-16" style="edgeStyle=orthogonalEdgeStyle;rounded=0;orthogonalLoop=1;jettySize=auto;html=1;entryX=0;entryY=0.5;entryDx=0;entryDy=0;exitX=0.88;exitY=0.25;exitDx=0;exitDy=0;exitPerimeter=0;" edge="1" parent="1" source="DwHTUwdWwvHwh_4NnhPt-5" target="DwHTUwdWwvHwh_4NnhPt-10">
          <mxGeometry relative="1" as="geometry" />
        </mxCell>
        <mxCell id="DwHTUwdWwvHwh_4NnhPt-17" style="edgeStyle=orthogonalEdgeStyle;rounded=0;orthogonalLoop=1;jettySize=auto;html=1;entryX=0.021;entryY=0.633;entryDx=0;entryDy=0;entryPerimeter=0;exitX=0.875;exitY=0.5;exitDx=0;exitDy=0;exitPerimeter=0;" edge="1" parent="1" source="DwHTUwdWwvHwh_4NnhPt-5" target="DwHTUwdWwvHwh_4NnhPt-11">
          <mxGeometry relative="1" as="geometry" />
        </mxCell>
        <mxCell id="DwHTUwdWwvHwh_4NnhPt-33" value="Developer" style="shape=umlActor;verticalLabelPosition=bottom;verticalAlign=top;html=1;outlineConnect=0;" vertex="1" parent="1">
          <mxGeometry x="-124" y="500" width="30" height="60" as="geometry" />
        </mxCell>
        <mxCell id="DwHTUwdWwvHwh_4NnhPt-48" value="" style="group" vertex="1" connectable="0" parent="1">
          <mxGeometry x="-10" y="480" width="960" height="100" as="geometry" />
        </mxCell>
        <mxCell id="DwHTUwdWwvHwh_4NnhPt-39" value="" style="rounded=0;whiteSpace=wrap;html=1;dashed=1;" vertex="1" parent="DwHTUwdWwvHwh_4NnhPt-48">
          <mxGeometry width="960" height="100" as="geometry" />
        </mxCell>
        <mxCell id="DwHTUwdWwvHwh_4NnhPt-27" style="edgeStyle=orthogonalEdgeStyle;rounded=0;orthogonalLoop=1;jettySize=auto;html=1;entryX=0;entryY=0.5;entryDx=0;entryDy=0;" edge="1" parent="DwHTUwdWwvHwh_4NnhPt-48" source="DwHTUwdWwvHwh_4NnhPt-21" target="DwHTUwdWwvHwh_4NnhPt-22">
          <mxGeometry relative="1" as="geometry" />
        </mxCell>
        <mxCell id="DwHTUwdWwvHwh_4NnhPt-21" value="GitLab" style="rounded=0;whiteSpace=wrap;html=1;" vertex="1" parent="DwHTUwdWwvHwh_4NnhPt-48">
          <mxGeometry x="20" y="30" width="120" height="40" as="geometry" />
        </mxCell>
        <mxCell id="DwHTUwdWwvHwh_4NnhPt-28" style="edgeStyle=orthogonalEdgeStyle;rounded=0;orthogonalLoop=1;jettySize=auto;html=1;entryX=0;entryY=0.5;entryDx=0;entryDy=0;" edge="1" parent="DwHTUwdWwvHwh_4NnhPt-48" source="DwHTUwdWwvHwh_4NnhPt-22" target="DwHTUwdWwvHwh_4NnhPt-23">
          <mxGeometry relative="1" as="geometry" />
        </mxCell>
        <mxCell id="DwHTUwdWwvHwh_4NnhPt-22" value="GitLab CI" style="rounded=0;whiteSpace=wrap;html=1;" vertex="1" parent="DwHTUwdWwvHwh_4NnhPt-48">
          <mxGeometry x="180" y="30" width="120" height="40" as="geometry" />
        </mxCell>
        <mxCell id="DwHTUwdWwvHwh_4NnhPt-29" style="edgeStyle=orthogonalEdgeStyle;rounded=0;orthogonalLoop=1;jettySize=auto;html=1;entryX=0;entryY=0.5;entryDx=0;entryDy=0;" edge="1" parent="DwHTUwdWwvHwh_4NnhPt-48" source="DwHTUwdWwvHwh_4NnhPt-23" target="DwHTUwdWwvHwh_4NnhPt-24">
          <mxGeometry relative="1" as="geometry" />
        </mxCell>
        <mxCell id="DwHTUwdWwvHwh_4NnhPt-23" value="Snyk" style="rounded=0;whiteSpace=wrap;html=1;" vertex="1" parent="DwHTUwdWwvHwh_4NnhPt-48">
          <mxGeometry x="340" y="30" width="120" height="40" as="geometry" />
        </mxCell>
        <mxCell id="DwHTUwdWwvHwh_4NnhPt-30" style="edgeStyle=orthogonalEdgeStyle;rounded=0;orthogonalLoop=1;jettySize=auto;html=1;entryX=0;entryY=0.5;entryDx=0;entryDy=0;" edge="1" parent="DwHTUwdWwvHwh_4NnhPt-48" source="DwHTUwdWwvHwh_4NnhPt-24" target="DwHTUwdWwvHwh_4NnhPt-25">
          <mxGeometry relative="1" as="geometry" />
        </mxCell>
        <mxCell id="DwHTUwdWwvHwh_4NnhPt-24" value="Tests" style="rounded=0;whiteSpace=wrap;html=1;" vertex="1" parent="DwHTUwdWwvHwh_4NnhPt-48">
          <mxGeometry x="500" y="30" width="120" height="40" as="geometry" />
        </mxCell>
        <mxCell id="DwHTUwdWwvHwh_4NnhPt-31" style="edgeStyle=orthogonalEdgeStyle;rounded=0;orthogonalLoop=1;jettySize=auto;html=1;entryX=0;entryY=0.5;entryDx=0;entryDy=0;" edge="1" parent="DwHTUwdWwvHwh_4NnhPt-48" source="DwHTUwdWwvHwh_4NnhPt-25" target="DwHTUwdWwvHwh_4NnhPt-26">
          <mxGeometry relative="1" as="geometry" />
        </mxCell>
        <mxCell id="DwHTUwdWwvHwh_4NnhPt-25" value="Sonar Cloud" style="rounded=0;whiteSpace=wrap;html=1;" vertex="1" parent="DwHTUwdWwvHwh_4NnhPt-48">
          <mxGeometry x="660" y="30" width="120" height="40" as="geometry" />
        </mxCell>
        <mxCell id="DwHTUwdWwvHwh_4NnhPt-26" value="Build" style="rounded=0;whiteSpace=wrap;html=1;" vertex="1" parent="DwHTUwdWwvHwh_4NnhPt-48">
          <mxGeometry x="820" y="30" width="120" height="40" as="geometry" />
        </mxCell>
        <mxCell id="DwHTUwdWwvHwh_4NnhPt-40" value="CI Pipeline" style="text;html=1;align=left;verticalAlign=middle;whiteSpace=wrap;rounded=0;" vertex="1" parent="DwHTUwdWwvHwh_4NnhPt-48">
          <mxGeometry x="2" width="130" height="20" as="geometry" />
        </mxCell>
        <mxCell id="DwHTUwdWwvHwh_4NnhPt-34" style="edgeStyle=orthogonalEdgeStyle;rounded=0;orthogonalLoop=1;jettySize=auto;html=1;entryX=0;entryY=0.5;entryDx=0;entryDy=0;" edge="1" parent="1" source="DwHTUwdWwvHwh_4NnhPt-33" target="DwHTUwdWwvHwh_4NnhPt-21">
          <mxGeometry relative="1" as="geometry" />
        </mxCell>
        <mxCell id="DwHTUwdWwvHwh_4NnhPt-37" value="Commit Code" style="edgeLabel;html=1;align=center;verticalAlign=middle;resizable=0;points=[];" vertex="1" connectable="0" parent="DwHTUwdWwvHwh_4NnhPt-34">
          <mxGeometry x="-0.1941" y="-2" relative="1" as="geometry">
            <mxPoint as="offset" />
          </mxGeometry>
        </mxCell>
        <mxCell id="DwHTUwdWwvHwh_4NnhPt-45" style="edgeStyle=orthogonalEdgeStyle;rounded=0;orthogonalLoop=1;jettySize=auto;html=1;entryX=0.5;entryY=1;entryDx=0;entryDy=0;dashed=1;" edge="1" parent="1" source="DwHTUwdWwvHwh_4NnhPt-26" target="DwHTUwdWwvHwh_4NnhPt-41">
          <mxGeometry relative="1" as="geometry" />
        </mxCell>
        <mxCell id="DwHTUwdWwvHwh_4NnhPt-46" value="Upload to S3 artifactory" style="edgeLabel;html=1;align=center;verticalAlign=middle;resizable=0;points=[];" vertex="1" connectable="0" parent="DwHTUwdWwvHwh_4NnhPt-45">
          <mxGeometry x="-0.6174" y="3" relative="1" as="geometry">
            <mxPoint as="offset" />
          </mxGeometry>
        </mxCell>
        <mxCell id="DwHTUwdWwvHwh_4NnhPt-64" style="edgeStyle=orthogonalEdgeStyle;rounded=0;orthogonalLoop=1;jettySize=auto;html=1;entryX=0.5;entryY=0;entryDx=0;entryDy=0;exitX=0.55;exitY=0.95;exitDx=0;exitDy=0;exitPerimeter=0;dashed=1;" edge="1" parent="1" source="DwHTUwdWwvHwh_4NnhPt-5" target="DwHTUwdWwvHwh_4NnhPt-57">
          <mxGeometry relative="1" as="geometry">
            <Array as="points">
              <mxPoint x="196" y="300" />
              <mxPoint x="763" y="300" />
            </Array>
          </mxGeometry>
        </mxCell>
        <mxCell id="DwHTUwdWwvHwh_4NnhPt-65" value="Upload CV using the Pre-Signed URL" style="edgeLabel;html=1;align=center;verticalAlign=middle;resizable=0;points=[];" vertex="1" connectable="0" parent="DwHTUwdWwvHwh_4NnhPt-64">
          <mxGeometry x="-0.411" y="5" relative="1" as="geometry">
            <mxPoint x="1" y="1" as="offset" />
          </mxGeometry>
        </mxCell>
      </root>
    </mxGraphModel>
  </diagram>
</mxfile>
